Coordinates
version=1
nRows=27
nColumns=38
inDegrees=no

Units are S.I. units (second, meters, Newtons, ...)
If the header above contains a line with 'inDegrees', this indicates whether rotational values are in degrees (yes) or radians (no).

endheader
time	pelvis_tilt	pelvis_list	pelvis_rotation	pelvis_tx	pelvis_ty	pelvis_tz	hip_flexion_r	hip_adduction_r	hip_rotation_r	knee_angle_r	ankle_angle_r	subtalar_angle_r	mtp_angle_r	hip_flexion_l	hip_adduction_l	hip_rotation_l	knee_angle_l	ankle_angle_l	subtalar_angle_l	mtp_angle_l	lumbar_extension	lumbar_bending	lumbar_rotation	arm_flex_r	arm_add_r	arm_rot_r	elbow_flex_r	pro_sup_r	wrist_flex_r	wrist_dev_r	arm_flex_l	arm_add_l	arm_rot_l	elbow_flex_l	pro_sup_l	wrist_flex_l	wrist_dev_l
0.59	-0.207619	1.29053	-1.23565	0.91663	1.12356	0.959609	0.187716	-0.0491525	-0.20781	0.711161	-0.330518	0	0	-0.40325	-0.109276	-0.357849	0.233184	-0.151118	0	0	-0.427954	0.0939344	-0.243492	0.259904	-0.504696	1.39379	0.637712	0.18743	0	0	-0.170209	-0.457233	-0.0387729	1.1063	1.51722	0	0
0.6	-0.206187	1.29234	-1.23685	0.91651	1.1137	0.958443	0.180863	-0.0455512	-0.20315	0.624512	-0.340076	0	0	-0.415222	-0.109622	-0.358598	0.230458	-0.146499	0	0	-0.428445	0.0935627	-0.243879	0.261304	-0.502663	1.39484	0.634426	0.188638	0	0	-0.163326	-0.457822	-0.0520494	1.12098	1.51512	0	0
0.61	-0.202035	1.29524	-1.24079	0.916321	1.10368	0.957011	0.171894	-0.0427225	-0.19732	0.532691	-0.353979	0	0	-0.426318	-0.108915	-0.359236	0.227948	-0.141332	0	0	-0.427681	0.0920579	-0.244977	0.262154	-0.50052	1.39502	0.631505	0.190368	0	0	-0.157448	-0.458558	-0.0644098	1.1351	1.51415	0	0
0.62	-0.196276	1.30027	-1.24705	0.916022	1.09353	0.955209	0.164367	-0.041226	-0.18671	0.449756	-0.357344	0	0	-0.435054	-0.106931	-0.359805	0.226427	-0.135791	0	0	-0.424651	0.0892352	-0.245502	0.262171	-0.498827	1.39442	0.6293	0.192125	0	0	-0.151651	-0.45987	-0.0742475	1.14805	1.5124	0	0
0.63	-0.186987	1.30656	-1.25717	0.915545	1.08298	0.953089	0.154073	-0.0400015	-0.182959	0.339033	-0.388843	0	0	-0.44322	-0.104011	-0.360599	0.225248	-0.129432	0	0	-0.419743	0.0848587	-0.246551	0.261127	-0.497117	1.39324	0.627687	0.194783	0	0	-0.148047	-0.46125	-0.0842387	1.1608	1.50985	0	0
0.64	-0.174248	1.31612	-1.27218	0.91496	1.07222	0.950485	0.149029	-0.0431264	-0.173482	0.272211	-0.377817	0	0	-0.448099	-0.0986662	-0.361981	0.224968	-0.123768	0	0	-0.411242	0.0784479	-0.246306	0.258945	-0.496645	1.39168	0.627719	0.196499	0	0	-0.144646	-0.462949	-0.0913539	1.17217	1.50657	0	0
0.65	-0.158665	1.325	-1.28946	0.914262	1.06115	0.947791	0.140679	-0.0462071	-0.174227	0.187752	-0.373692	0	0	-0.453646	-0.0937564	-0.363798	0.225694	-0.116061	0	0	-0.402535	0.071701	-0.24664	0.255748	-0.495794	1.38939	0.627639	0.198641	0	0	-0.142411	-0.464913	-0.0978074	1.18276	1.50484	0	0
0.66	-0.141702	1.33242	-1.30784	0.913475	1.04991	0.945132	0.129456	-0.0480668	-0.182519	0.103971	-0.376181	0	0	-0.460459	-0.0895809	-0.365806	0.227229	-0.108949	0	0	-0.394967	0.0653598	-0.246921	0.252554	-0.495353	1.38722	0.628505	0.200847	0	0	-0.140402	-0.466783	-0.103309	1.19236	1.50362	0	0
0.67	-0.124843	1.33786	-1.32556	0.912619	1.03863	0.942605	0.115899	-0.0479446	-0.19678	0.0221606	-0.38738	0	0	-0.468667	-0.0866289	-0.367276	0.229561	-0.102956	0	0	-0.389362	0.0600182	-0.247419	0.249828	-0.495186	1.38513	0.630135	0.203064	0	0	-0.138549	-0.46828	-0.108657	1.20101	1.50299	0	0
0.68	-0.110843	1.34531	-1.34212	0.911503	1.02755	0.939943	0.111561	-0.0482036	-0.201527	0	-0.388192	0	0	-0.47356	-0.0833835	-0.367863	0.232501	-0.0998959	0	0	-0.382194	0.0548188	-0.246121	0.248032	-0.495021	1.38411	0.631585	0.203811	0	0	-0.135971	-0.469708	-0.112364	1.20743	1.50191	0	0
0.69	-0.101903	1.35385	-1.35288	0.910386	1.01642	0.937349	0.111881	-0.048044	-0.208224	0	-0.374983	0	0	-0.47525	-0.0822936	-0.367997	0.239153	-0.0907594	0	0	-0.373962	0.0507229	-0.245792	0.245463	-0.492509	1.38041	0.629228	0.207425	0	0	-0.134748	-0.468004	-0.120344	1.21308	1.50313	0	0
0.7	-0.0966738	1.36015	-1.35919	0.909345	1.0053	0.935087	0.112435	-0.0472176	-0.219171	0	-0.356707	0	0	-0.478457	-0.082886	-0.367661	0.245792	-0.086835	0	0	-0.367915	0.0487272	-0.245715	0.243857	-0.490455	1.3775	0.627261	0.211075	0	0	-0.132796	-0.466075	-0.126395	1.21642	1.50422	0	0
0.71	-0.0961187	1.36261	-1.35969	0.908401	0.99415	0.933309	0.112824	-0.0460695	-0.229046	0	-0.350164	0	0	-0.485293	-0.0857945	-0.366913	0.251726	-0.0862754	0	0	-0.365774	0.0493003	-0.245872	0.243688	-0.489704	1.37677	0.627341	0.211599	0	0	-0.130089	-0.465161	-0.128915	1.21821	1.50313	0	0
0.72	-0.102597	1.36225	-1.35171	0.907489	0.982894	0.93202	0.113227	-0.0435134	-0.237647	0	-0.345068	0	0	-0.494136	-0.0918456	-0.366025	0.258502	-0.0863857	0	0	-0.36619	0.0525003	-0.246945	0.244007	-0.488603	1.37609	0.627026	0.211735	0	0	-0.127513	-0.463486	-0.131206	1.2184	1.50228	0	0
0.73	-0.115854	1.35919	-1.33623	0.906499	0.971446	0.93119	0.111551	-0.0380892	-0.243777	0	-0.342746	0	0	-0.505257	-0.100586	-0.365868	0.265615	-0.0875312	0	0	-0.368826	0.0580586	-0.248587	0.244605	-0.487174	1.37518	0.626605	0.211603	0	0	-0.125896	-0.461055	-0.133861	1.21737	1.50195	0	0
0.74	-0.131656	1.35418	-1.31778	0.905479	0.959794	0.930689	0.107481	-0.0304376	-0.24569	0	-0.343871	0	0	-0.518051	-0.110465	-0.36607	0.272851	-0.0902476	0	0	-0.372963	0.065031	-0.25079	0.245419	-0.485835	1.37407	0.626649	0.211169	0	0	-0.125683	-0.458009	-0.136805	1.21558	1.50211	0	0
0.75	-0.147767	1.34891	-1.29881	0.904437	0.947817	0.930356	0.10193	-0.0215726	-0.243657	0	-0.346179	0	0	-0.523599	-0.120553	-0.366978	0.280113	-0.0946717	0	0	-0.376881	0.0725552	-0.253451	0.245884	-0.484591	1.37277	0.627034	0.210583	0	0	-0.127419	-0.454405	-0.139906	1.21325	1.50286	0	0
0.76	-0.164771	1.34508	-1.27875	0.903331	0.935451	0.930062	0.0963647	-0.0125474	-0.238503	0	-0.348415	0	0	-0.523599	-0.130942	-0.368921	0.288481	-0.100572	0	0	-0.37864	0.0802104	-0.256641	0.245362	-0.482898	1.37107	0.626834	0.209854	0	0	-0.131123	-0.449994	-0.143091	1.2099	1.50443	0	0
0.77	-0.185902	1.34184	-1.25494	0.902116	0.922825	0.929877	0.0913203	-0.0025949	-0.232458	0.00753418	-0.356475	0	0	-0.523599	-0.143048	-0.375778	0.300882	-0.115865	0	0	-0.379135	0.0889211	-0.261273	0.245296	-0.480107	1.37029	0.625557	0.210256	0	0	-0.137999	-0.44178	-0.152473	1.20588	1.5114	0	0
0.78	-0.204591	1.34015	-1.23355	0.900815	0.910009	0.929851	0.0866873	0.00624338	-0.228762	0.0142258	-0.377756	0	0	-0.523599	-0.153568	-0.378913	0.312828	-0.12906	0	0	-0.377939	0.0964176	-0.265006	0.244224	-0.476426	1.37094	0.622763	0.210899	0	0	-0.144412	-0.434647	-0.157834	1.19993	1.5179	0	0
0.79	-0.22097	1.33826	-1.21388	0.899507	0.897029	0.930067	0.0800705	0.0147472	-0.231428	0.0159194	-0.407359	0	0	-0.523599	-0.164103	-0.381291	0.327185	-0.141454	0	0	-0.376472	0.103604	-0.268578	0.242131	-0.473509	1.37075	0.621348	0.210322	0	0	-0.150753	-0.428826	-0.159271	1.19242	1.52151	0	0
0.8	-0.236151	1.33659	-1.19512	0.89814	0.883824	0.930517	0.0719865	0.0230237	-0.239117	0.0170302	-0.4443	0	0	-0.523599	-0.174952	-0.383271	0.344175	-0.157778	0	0	-0.374136	0.11043	-0.27217	0.239257	-0.47065	1.37047	0.620187	0.208921	0	0	-0.157619	-0.422989	-0.159171	1.18334	1.52545	0	0
0.81	-0.251457	1.33518	-1.17602	0.896635	0.870389	0.931204	0.0629795	0.0316894	-0.250023	0.0181504	-0.477841	0	0	-0.523599	-0.186428	-0.383928	0.364551	-0.177252	0	0	-0.370985	0.117076	-0.276049	0.235868	-0.467127	1.37068	0.618442	0.207051	0	0	-0.165447	-0.417323	-0.157975	1.17313	1.53006	0	0
0.82	-0.263146	1.33276	-1.16243	0.894879	0.856999	0.932184	0.052847	0.0398386	-0.256674	0.0228575	-0.501822	0	0	-0.523599	-0.196946	-0.384234	0.389078	-0.200045	0	0	-0.369246	0.122511	-0.278245	0.233086	-0.463739	1.372	0.617306	0.204577	0	0	-0.173694	-0.412502	-0.155335	1.16257	1.53522	0	0
0.83	-0.270051	1.32872	-1.1552	0.89282	0.843586	0.933388	0.0386087	0.0496203	-0.263681	0.00819992	-0.534651	0	0	-0.523599	-0.207231	-0.383736	0.419217	-0.222532	0	0	-0.369295	0.126489	-0.278997	0.230201	-0.461291	1.37299	0.618469	0.201706	0	0	-0.183324	-0.409157	-0.15155	1.15294	1.54095	0	0
0.84	-0.280358	1.32299	-1.14719	0.890693	0.830632	0.935074	0.0286925	0.0576409	-0.258041	0.0231394	-0.551804	0	0	-0.523599	-0.218531	-0.383382	0.456463	-0.254492	0	0	-0.372205	0.131874	-0.276544	0.229497	-0.460856	1.37536	0.621898	0.197013	0	0	-0.191381	-0.405656	-0.146003	1.14219	1.54943	0	0
0.85	-0.294008	1.31627	-1.13783	0.888312	0.817926	0.937027	0.0196117	0.0669077	-0.249537	0.0410641	-0.550346	0	0	-0.523599	-0.231423	-0.381517	0.500967	-0.286506	0	0	-0.376343	0.138024	-0.271421	0.2295	-0.461622	1.37771	0.627014	0.19124	0	0	-0.198099	-0.401492	-0.139796	1.13076	1.55569	0	0
